# xmcd
#
# Track frame offsets: 
#        150
#        15314
#        37670
#        57964
#        76716
#        100393
#        116302
#        136062
#        158532
#        176911
#        198451
#
# Disc length: 2925 seconds
#
# Revision: 0
# Processed by: cddbd v1.5.2PL0 Copyright (c) Steve Scherf et al.
# Submitted via: ExactAudioCopy v1.0b3
#
DISCID=770b6b0b
DTITLE=Vasko Krypkata and PBB - July
DYEAR=2013
DGENRE=Blues
TTITLE0=Pechelish gubish
TTITLE1=Nyama vryshtane nazad
TTITLE2=Nyama bira
TTITLE3=Hiparski vremena
TTITLE4=Zhivot na pat
TTITLE5=Da zhivee rokendrola
TTITLE6=Noshtni peperudi
TTITLE7=Blues from The Dark Side of The Wall
TTITLE8=Divite tzvetya
TTITLE9=Angelite zhiveyat na nebeto
TTITLE10=Neka bade svetlina (live)
EXTD=
EXTT0=
EXTT1=
EXTT2=
EXTT3=
EXTT4=
EXTT5=
EXTT6=
EXTT7=
EXTT8=
EXTT9=
EXTT10=
PLAYORDER=
